<?xml version="1.0" encoding="utf-8"?>
<!-- Generator: Adobe Illustrator 25.0.0, SVG Export Plug-In . SVG Version: 6.00 Build 0)  -->
<svg version="1.1" id="Layer_1" xmlns="http://www.w3.org/2000/svg" xmlns:xlink="http://www.w3.org/1999/xlink" x="0px" y="0px"
	 viewBox="0 0 182.5 50.5" style="enable-background:new 0 0 182.5 50.5;" xml:space="preserve">
<style type="text/css">
	.st0{fill:#AFAFAF;}
</style>
<path class="st0" d="M62.1,38l0.5,7.4h0.1c0.2-0.8,0.5-1.5,0.9-2.3l2.5-5.1h4.1l0.6,7.4H71c0.2-0.7,0.5-1.5,0.8-2.2l2.5-5.2h5.6
	l-7.6,12.3h-4.7l-0.4-6.7H67c-0.2,0.6-0.3,1.3-0.6,1.9L64,50.3h-4.6L56.5,38H62.1z"/>
<path class="st0" d="M79.5,38h5.2l-0.8,4.2h3.3L88,38h5.2l-2.3,12.3h-5.2l0.8-4.3h-3.3l-0.8,4.3h-5.2L79.5,38z"/>
<path class="st0" d="M108.3,44.2c-0.8,4-4.9,6.3-9.4,6.3c-4.5,0-7.7-2.4-7-6.3c0.7-3.9,4.9-6.4,9.4-6.4S109.1,40.3,108.3,44.2
	L108.3,44.2z M97.4,44.2c-0.3,1.4,0.7,2.4,2.3,2.4c1.6,0,3-1,3.2-2.4c0.2-1.3-0.6-2.4-2.3-2.4C98.9,41.8,97.6,42.9,97.4,44.2z
	 M109.5,38h5.4l-1.6,8.4h4.5l-0.8,4h-9.9L109.5,38z M130.6,45.9l0.2,0.2c0.8,0.6,1.9,1.1,3.1,1.1c0.5,0,1.4-0.2,1.5-0.7
	s-0.6-0.6-1.1-0.7l-1.1-0.2c-2-0.3-3.6-1.3-3.2-3.3c0.6-2.9,4.1-4.6,7.3-4.6c1.7,0,3.2,0.3,4.5,1.1l-2.1,3.2
	c-0.8-0.5-1.8-0.9-2.9-0.9c-0.5,0-1.2,0.1-1.3,0.7c-0.1,0.5,0.6,0.5,1,0.6l1.2,0.2c2.2,0.4,3.7,1.4,3.3,3.5
	c-0.6,2.9-4.1,4.4-7.3,4.4c-1.9,0-3.9-0.4-5.5-1.1L130.6,45.9L130.6,45.9z"/>
<path class="st0" d="M149.1,45.8l-0.2-2.2c-0.1-0.5-0.1-1.1-0.1-1.6h-0.2l-1.7,3.8H149.1L149.1,45.8z M144.4,50.3h-5.7l7.5-12.3h6
	l2.9,12.3h-5.7l-0.2-1.5h-4.1L144.4,50.3L144.4,50.3z"/>
<path class="st0" d="M157,38h5.4l-1.6,8.4h4.5l-0.8,4h-9.9L157,38z M167.9,38h10l-0.6,3.4h-4.5l-0.2,1.2h4.1l-0.6,3.2h-4.1l-0.2,1.2
	h4.7l-0.6,3.4h-10.1L167.9,38z"/>
<g>
	<path class="st0" d="M94.8,15.8l6.8-0.3l-5.7,18.8h12.2l5.7-18.8l6.6,0.3l2.7-8.9H97.5L94.8,15.8L94.8,15.8z M69.6,20.6
		c-1.7,8.8-11.1,14.1-21.3,14.1c-10.2,0-17.5-5.3-15.8-14.1C34.1,12,43.6,6.4,53.8,6.4C63.9,6.4,71.2,12,69.6,20.6L69.6,20.6z
		 M44.7,20.8c-0.6,3.1,1.6,5.3,5.3,5.3c3.7,0,6.7-2.1,7.3-5.3c0.6-2.9-1.4-5.4-5.2-5.4C48.1,15.4,45.3,17.9,44.7,20.8L44.7,20.8z"/>
	<path class="st0" d="M65.8,32.2c3.5,1.6,8.2,2.5,12.4,2.5c7.3,0,15.2-3.2,16.5-9.8c0.9-4.7-2.4-6.9-7.4-7.9l-2.7-0.5
		c-0.9-0.2-2.4-0.3-2.2-1.3c0.2-1.1,1.8-1.5,2.9-1.5c2.6,0,4.8,0.9,6.7,2.1l4.7-7c-3-1.6-6.3-2.4-10.2-2.4C79.2,6.4,71.2,10,70,16.6
		c-0.8,4.3,2.7,6.6,7.4,7.3l2.4,0.4c1.1,0.2,2.7,0.3,2.4,1.5s-2.2,1.6-3.4,1.6c-2.8,0-5.2-1.1-7.1-2.5L71,24.5L65.8,32.2z
		 M146.9,7.5c-2.4-0.7-5.2-1.1-8-1.1c-9.8,0-18.8,6.4-20.3,14.4c-1.5,7.8,4.8,13.9,14.4,13.9c2.2,0,6.8-0.3,8.9-1.1l2.3-10.3
		c-2.3,1.6-4.7,2.5-7.5,2.5c-3.6,0-6.4-2.3-5.8-5.4c0.6-3,4-5.4,7.7-5.4c2.8,0,5,1.3,6.6,2.8L146.9,7.5L146.9,7.5z M166.4,6.4
		c-10.2,0-19.6,5.6-21.3,14.2c-1.7,8.8,5.6,14.1,15.8,14.1c10.2,0,19.6-5.3,21.3-14.1C183.9,12,176.6,6.4,166.4,6.4z M164.7,15.4
		c3.9,0,5.8,2.4,5.2,5.4c-0.6,3.1-3.6,5.3-7.3,5.3s-5.9-2.1-5.3-5.3C158,17.9,160.8,15.4,164.7,15.4L164.7,15.4z M35.6,1.4
		c-3-0.9-6.5-1.4-9.9-1.4C13.4,0,2.2,7.8,0.3,17.4c-1.9,9.5,6,16.8,17.9,16.8c2.7,0,8.5-0.4,11.1-1.3l2.9-12.4
		c-2.8,1.9-5.8,3.1-9.3,3.1c-4.6,0-7.9-2.8-7.2-6.5c0.7-3.6,5-6.5,9.6-6.5c3.4,0,6.2,1.5,8.3,3.3L35.6,1.4L35.6,1.4z"/>
	<path class="st0" d="M174.8,33c0.2-1,1.3-1.7,2.4-1.7c1.2,0,1.9,0.8,1.8,1.7c-0.2,1-1.3,1.7-2.4,1.7
		C175.3,34.7,174.6,33.9,174.8,33z M178.4,33c0.1-0.8-0.4-1.3-1.3-1.3c-0.9,0-1.6,0.5-1.8,1.3c-0.1,0.8,0.4,1.3,1.3,1.3
		C177.5,34.3,178.2,33.7,178.4,33L178.4,33z M177.6,33.9h-0.5l-0.3-0.8h-0.4l-0.1,0.8h-0.5l0.3-1.8h1.1c0.5,0,0.7,0.1,0.6,0.6
		c-0.1,0.3-0.3,0.5-0.6,0.5L177.6,33.9L177.6,33.9z M177,32.8c0.2,0,0.4,0,0.5-0.2c0-0.2-0.2-0.2-0.4-0.2h-0.5l-0.1,0.4H177
		L177,32.8z"/>
</g>
<path class="st0" d="M1.1,50.3h57.1l0,0h0l-0.7-3.1H1.1L1.1,50.3z M1.1,45.8h56l-0.7-3.2H1.1V45.8z M1.1,41.3h55l-0.2-1.2L55.3,38
	H1.1L1.1,41.3z M120.4,38h10l-0.6,3.4h-4.5l-0.2,1.2h4.1l-0.6,3.2h-4.1l-0.2,1.2h4.7l-0.6,3.4h-10.1L120.4,38z"/>
</svg>
