<?xml version="1.0" encoding="utf-8"?>
<!-- Generator: Adobe Illustrator 25.0.0, SVG Export Plug-In . SVG Version: 6.00 Build 0)  -->
<svg version="1.1"
	 id="Layer_1" xmlns:cc="http://creativecommons.org/ns#" xmlns:dc="http://purl.org/dc/elements/1.1/" xmlns:rdf="http://www.w3.org/1999/02/22-rdf-syntax-ns#"
	 xmlns="http://www.w3.org/2000/svg" xmlns:xlink="http://www.w3.org/1999/xlink" x="0px" y="0px" viewBox="0 0 51.2 61"
	 style="enable-background:new 0 0 51.2 61;" xml:space="preserve">
<style type="text/css">
	.st0{fill:#AFAFAF;}
</style>
<g transform="matrix(1.25 0 0 -1.25 -47.372 728.76)">
	<g transform="translate(.36060 .36060)">
		<path class="st0" d="M58,582.6c-7.9,0-14.8-1.5-20.5-4.5V554c0-5.1,1.9-9.3,5.5-12.3c3.4-2.7,13.7-7.3,15-7.8
			c1.2,0.5,11.7,5.1,15,7.8c3.6,3,5.5,7.2,5.5,12.3v24.1C72.8,581.1,65.9,582.6,58,582.6L58,582.6z M69.7,578c2.4,0,4.7-0.2,6.9-0.4
			V554c0-4.5-1.6-8.2-4.8-10.8c-2.8-2.3-11.4-6.2-13.8-7.2c-2.4,1.1-11,5-13.8,7.2c-3.2,2.6-4.8,6.3-4.8,10.8v13.8
			C48.5,576.1,59.5,578.1,69.7,578L69.7,578z M58.6,567c-1.9,0-3.5-0.4-4.8-1.3v-23.2h3.6v7.5c0.4-0.1,0.9-0.2,1.6-0.2
			c4,0,6.2,3.6,6.2,8.8C65.2,563.7,62.8,567,58.6,567L58.6,567z M70.8,567c-2.3-0.1-4.8-1.8-4.8-4.6c0-1.9,0.5-3.3,3.5-5
			c1.6-0.9,2.2-1.5,2.2-2.6c0-1.2-0.8-2-2.1-2c-1.1,0-2.5,0.6-3.4,1.5v-3.3c1.1-0.7,2.5-1.1,3.9-1.1c3.5,0,5.1,2.5,5.2,4.8
			c0.1,2.1-0.5,3.7-3.5,5.4c-1.3,0.8-2.4,1.3-2.3,2.6c0,1.3,1.1,1.7,2.1,1.7c1.2,0,2.5-0.7,3.2-1.5v3.1C74,566.3,72.7,567,70.8,567
			L70.8,567z M41.2,566.6v-11.2c0-3.8,1.8-5.7,5.3-5.7c2.2,0,4,0.5,5.4,1.4v15.5h-3.6v-13.4c-0.4-0.3-1-0.4-1.7-0.4
			c-1.6,0-1.9,1.5-1.9,2.5v11.4L41.2,566.6L41.2,566.6z M58.6,564.1c2.1,0,2.9-1.7,2.9-5.6c0-3.9-1-5.8-3-5.8
			c-0.5,0-0.9,0.1-1.2,0.2v11C57.6,564,58.1,564.1,58.6,564.1L58.6,564.1z"/>
	</g>
</g>
</svg>
