<?xml version="1.0" encoding="utf-8"?>
<!-- Generator: Adobe Illustrator 25.0.0, SVG Export Plug-In . SVG Version: 6.00 Build 0)  -->
<svg version="1.1"
	 id="svg5890" xmlns:cc="http://creativecommons.org/ns#" xmlns:dc="http://purl.org/dc/elements/1.1/" xmlns:rdf="http://www.w3.org/1999/02/22-rdf-syntax-ns#" xmlns:svg="http://www.w3.org/2000/svg"
	 xmlns="http://www.w3.org/2000/svg" xmlns:xlink="http://www.w3.org/1999/xlink" x="0px" y="0px" viewBox="0 0 89.2 41"
	 style="enable-background:new 0 0 89.2 41;" xml:space="preserve">
<style type="text/css">
	.st0{fill:#AFAFAF;}
	.st1{fill:#FFFFFF;}
</style>
<g id="layer1" transform="translate(-110.25097,-377.28528)">
	<path id="path5808" class="st0" d="M154.9,377.3l-23,9.9h-14.4v4h-7.2v27.1h89.2v-27.1h-7.2v-4h-14.4L154.9,377.3z"/>
	<path id="path5812" class="st1" d="M176.2,394.4l0,4.4l2.8,0l0.6-4.4L176.2,394.4L176.2,394.4z"/>
	<path id="path5824" class="st1" d="M191.5,398.1c0.2,0,0.3,0,0.3-0.2c0-0.2-0.2-0.2-0.3-0.2h-0.3v0.4L191.5,398.1L191.5,398.1z
		 M191.2,399H191v-1.4h0.5c0.3,0,0.5,0.1,0.5,0.4c0,0.3-0.2,0.4-0.4,0.4l0.4,0.6h-0.2l-0.4-0.6h-0.2L191.2,399L191.2,399z
		 M191.5,399.3c0.6,0,1-0.4,1-1c0-0.6-0.4-1-1-1c-0.6,0-1,0.4-1,1C190.5,398.8,190.9,399.3,191.5,399.3 M190.2,398.2
		c0-0.7,0.6-1.2,1.3-1.2c0.7,0,1.3,0.5,1.3,1.2c0,0.7-0.6,1.2-1.3,1.2C190.8,399.5,190.2,399,190.2,398.2"/>
	<path id="path5828" class="st1" d="M124.5,409.3v-14.9h-4.1v18.5h10.4v-3.6H124.5z"/>
	<path id="path5832" class="st1" d="M165.5,412.8h9.7v-3.6h-5.6v-2.3h5.6v-3.4h-5.6v-2.3h5.6v-3.6h-9.7v0V412.8z"/>
	<path id="path5834" class="st1" d="M140.1,401.2h-3.6v8.1h3.6V401.2z M144.2,410.9c0,1.1-0.9,1.9-1.9,1.9h-7.9
		c-1.1,0-1.9-0.9-1.9-1.9v-11.3c0-1.1,0.9-1.9,1.9-1.9h7.9c1.1,0,1.9,0.9,1.9,1.9V410.9z"/>
	<path id="path5838" class="st1" d="M159.1,397.6v11.6h-2.5v-11.6h-3.6v11.6h-2.5v-11.6h-4.1v13.3c0,1.1,0.9,1.9,1.9,1.9h4.8
		c0.8,0,1.6-0.6,1.6-1.4c0,0.8,0.8,1.4,1.6,1.4h4.8c1.1,0,1.9-0.9,1.9-1.9v-13.3H159.1L159.1,397.6z"/>
	<path id="path5842" class="st1" d="M189.6,407.1L189.6,407.1L189.6,407.1c0-0.1-0.1-0.1-0.1-0.1l0,0c-0.6-1.3-2.1-2.4-4.4-3.3
		l-0.1,0c-0.5-0.2-1.9-0.7-2-1.6c0-0.2,0.1-0.6,0.3-0.9c0.3-0.3,0.7-0.5,1.3-0.5c0.9,0,2,0.4,2.6,0.6c1.2,0.5,2.2,0.9,2.2,0.9l0.1,0
		v-3.3l0,0c0,0-2.3-1.4-4.5-1.7c-0.3,0-0.5,0-0.8,0c-2.1,0-3.6,0.8-4.7,2.2c-0.9,1.2-1,3.2-0.2,4.6c0.9,1.6,2.4,2.3,3.9,3
		c0.6,0.3,1.2,0.6,1.8,0.9l0,0c0.7,0.4,1,1,0.9,1.5c-0.1,0.6-0.8,0.9-1.6,0.9c-0.1,0-0.2,0-0.3,0l0,0c-1.5-0.2-4.7-1.4-4.7-1.4
		l-0.1,0v3.6l0.1,0c0,0,3.1,1,5.8,1h0c1.5,0,2.6-0.3,3.3-0.9c0,0,1.7-1.3,1.7-3.6C190,408.3,189.9,407.7,189.6,407.1"/>
</g>
</svg>
